<svg xmlns="http://www.w3.org/2000/svg" viewBox="0 0 400 500" width="400" height="500" role="img" aria-label="Retícula de talavera en tonos fríos">
  <title>Retícula de talavera en tonos fríos</title>
  <rect width="400" height="500" fill="#F3EAE4"/>
  <rect x="60" y="90" width="56" height="56" rx="12" fill="#2F4A6B" opacity="0.92"/><circle cx="88" cy="118" r="11" fill="#4C5B45"/><rect x="136" y="90" width="56" height="56" rx="12" fill="#F6E8E1" opacity="1"/><rect x="212" y="90" width="56" height="56" rx="12" fill="#2F4A6B" opacity="0.92"/><circle cx="240" cy="118" r="11" fill="#4C5B45"/><rect x="288" y="90" width="56" height="56" rx="12" fill="#F6E8E1" opacity="1"/><rect x="60" y="166" width="56" height="56" rx="12" fill="#F6E8E1" opacity="1"/><rect x="136" y="166" width="56" height="56" rx="12" fill="#2F4A6B" opacity="0.92"/><circle cx="164" cy="194" r="11" fill="#4C5B45"/><rect x="212" y="166" width="56" height="56" rx="12" fill="#F6E8E1" opacity="1"/><rect x="288" y="166" width="56" height="56" rx="12" fill="#2F4A6B" opacity="0.92"/><circle cx="316" cy="194" r="11" fill="#4C5B45"/><rect x="60" y="242" width="56" height="56" rx="12" fill="#2F4A6B" opacity="0.92"/><circle cx="88" cy="270" r="11" fill="#4C5B45"/><rect x="136" y="242" width="56" height="56" rx="12" fill="#F6E8E1" opacity="1"/><rect x="212" y="242" width="56" height="56" rx="12" fill="#2F4A6B" opacity="0.92"/><circle cx="240" cy="270" r="11" fill="#4C5B45"/><rect x="288" y="242" width="56" height="56" rx="12" fill="#F6E8E1" opacity="1"/><rect x="60" y="318" width="56" height="56" rx="12" fill="#F6E8E1" opacity="1"/><rect x="136" y="318" width="56" height="56" rx="12" fill="#2F4A6B" opacity="0.92"/><circle cx="164" cy="346" r="11" fill="#4C5B45"/><rect x="212" y="318" width="56" height="56" rx="12" fill="#F6E8E1" opacity="1"/><rect x="288" y="318" width="56" height="56" rx="12" fill="#2F4A6B" opacity="0.92"/><circle cx="316" cy="346" r="11" fill="#4C5B45"/><rect x="60" y="394" width="56" height="56" rx="12" fill="#2F4A6B" opacity="0.92"/><circle cx="88" cy="422" r="11" fill="#4C5B45"/><rect x="136" y="394" width="56" height="56" rx="12" fill="#F6E8E1" opacity="1"/><rect x="212" y="394" width="56" height="56" rx="12" fill="#2F4A6B" opacity="0.92"/><circle cx="240" cy="422" r="11" fill="#4C5B45"/><rect x="288" y="394" width="56" height="56" rx="12" fill="#F6E8E1" opacity="1"/>
  <rect width="400" height="500" fill="none" stroke="#E3D6CF" stroke-width="2"/>
</svg>
